<?xml version="1.0" encoding="UTF-8"?>
<svg width="18px" height="22px" viewBox="0 0 18 22" version="1.1" xmlns="http://www.w3.org/2000/svg" xmlns:xlink="http://www.w3.org/1999/xlink">
    <title>7249E21C-A06F-425A-9027-324A435B15D3</title>
    <g id="Science" stroke="none" stroke-width="1" fill="none" fill-rule="evenodd" stroke-linecap="round" stroke-linejoin="round">
        <g id="Science_Page_V155-Copy" transform="translate(-827.000000, -626.000000)">
            <g id="Group-3" transform="translate(689.000000, 627.000000)">
                <g id="Group-25" transform="translate(139.000000, 0.000000)">
                    <path d="M15.9389312,10.3862184 L15.9389312,2.60627952 C13.1850208,2.07063055 10.5082583,1.19517613 7.970051,0 C5.43158716,1.19326388 2.75483311,2.06684889 0.00117075175,2.60072242 L0.00117075175,10.3806613 C0.00117075175,10.3806613 -0.282241307,17.6382328 7.970051,20 C16.2279004,17.649347 15.9389312,10.3862184 15.9389312,10.3862184 Z" id="Path-7" stroke="#303030" stroke-width="0.5"></path>
                    <path d="M10.1150913,9.38038344 C10.1554111,8.58899402 9.75614558,7.83983957 9.07671465,7.43204486 C8.39728372,7.02425016 7.54837538,7.02425016 6.86894445,7.43204486 C6.18951352,7.83983957 5.79024796,8.58899402 5.83056781,9.38038344 C5.82792829,10.0446574 6.13639224,10.6718674 6.66413269,11.0752987 L7.14760032,12.4090025 L8.81473007,12.4090025 L9.2981977,11.0752987 C9.81763793,10.6668022 10.1191605,10.0411943 10.1150913,9.38038344 L10.1150913,9.38038344 Z" id="Path" stroke="#FF6E00"></path>
                    <polygon id="Path" stroke="#FF6E00" points="8.49241832 14.0372326 7.44768367 14.0372326 7.14760032 13.2370103 8.79805878 13.2370103"></polygon>
                    <rect id="Rectangle" stroke="#FF6E00" x="7.14760032" y="12.4090025" width="1.65601556" height="1"></rect>
                    <line x1="7.970051" y1="5.70714087" x2="7.970051" y2="6.52959155" id="Path" stroke="#FF6E00"></line>
                    <line x1="5.37488567" y1="6.78521812" x2="5.95838109" y2="7.36315643" id="Path" stroke="#FF6E00"></line>
                    <line x1="4.29680843" y1="9.38038344" x2="5.11925911" y2="9.38038344" id="Path" stroke="#FF6E00"></line>
                    <line x1="10.5707734" y1="6.78521812" x2="9.987278" y2="7.36315643" id="Path" stroke="#FF6E00"></line>
                    <line x1="11.6432936" y1="9.38038344" x2="10.8208429" y2="9.38038344" id="Path" stroke="#FF6E00"></line>
                </g>
            </g>
        </g>
    </g>
</svg>