<?xml version="1.0" encoding="UTF-8"?>
<svg width="18px" height="22px" viewBox="0 0 18 22" version="1.1" xmlns="http://www.w3.org/2000/svg" xmlns:xlink="http://www.w3.org/1999/xlink">
    <title>11BBDCE9-4EB6-439E-A750-3A38B3236C41</title>
    <g id="Science" stroke="none" stroke-width="1" fill="none" fill-rule="evenodd" stroke-linecap="round" stroke-linejoin="round">
        <g id="Science_Page_V155-Copy" transform="translate(-688.000000, -626.000000)">
            <g id="Group-11" transform="translate(689.000000, 627.000000)">
                <g id="Group-5-Copy" stroke="#303030" stroke-width="0.5">
                    <path d="M15.9399946,10.3833333 L15.9399946,2.60555556 C13.1868492,2.07005537 10.5108302,1.19484414 7.97332793,4.93432455e-16 C5.43406039,1.19400982 2.75607625,2.06738723 0.00110570422,2.6 L0.00110570422,10.3777778 C0.00110570422,10.3777778 -0.276672074,17.6388889 7.97332793,20 C16.2288835,17.6444444 15.9399946,10.3833333 15.9399946,10.3833333 Z" id="Path"></path>
                </g>
                <g id="Group-10" transform="translate(3.889582, 6.661171)" stroke="#FF6E00">
                    <path d="M3.71707885,7.16660692 C2.84453331,6.62987397 2.03404759,5.99825406 1.30041219,5.28327359 C0.783584359,4.76682077 0.390418967,4.14003536 0.150412188,3.44994025 C-0.282921146,2.10549581 0.22263441,0.572162477 1.63374552,0.116606921 C2.37598822,-0.124189412 3.18905142,0.0127038817 3.8115233,0.483273588 L3.8115233,0.483273588 C4.43399518,0.0127038817 5.24705838,-0.124189412 5.98930108,0.116606921 C7.40041219,0.572162477 7.90596774,2.10549581 7.47263441,3.44994025 C7.23262763,4.14003536 6.83946224,4.76682077 6.32263441,5.28327359 C5.58871102,5.99631231 4.77823634,6.62606045 3.90596774,7.16105137 L3.8115233,7.22216248 L3.71707885,7.16660692 Z" id="Path_33961"></path>
                    <path d="M5.3115233,1.63327359 C5.74287465,1.76988596 6.04830332,2.15441846 6.08374552,2.60549581" id="Path_33964"></path>
                </g>
            </g>
        </g>
    </g>
</svg>