<?xml version="1.0" encoding="UTF-8"?>
<svg width="18px" height="22px" viewBox="0 0 18 22" version="1.1" xmlns="http://www.w3.org/2000/svg" xmlns:xlink="http://www.w3.org/1999/xlink">
    <title>731712E3-DD07-4428-A59D-EE39677D5EA6</title>
    <g id="Science" stroke="none" stroke-width="1" fill="none" fill-rule="evenodd" stroke-linecap="round" stroke-linejoin="round">
        <g id="Science_Page_V155-Copy" transform="translate(-955.000000, -626.000000)">
            <g id="Group-3" transform="translate(689.000000, 627.000000)">
                <g id="Group-26" transform="translate(267.000000, 0.000000)">
                    <path d="M15.9456061,10.3833333 L15.9456061,2.60555556 C13.1998883,2.06894872 10.5313565,1.19374494 8.00116163,0 C5.4530787,1.1961942 2.7656323,2.06961427 0.00116162637,2.6 L0.00116162637,10.3777778 C0.00116162637,10.3777778 -0.282171707,17.6388889 8.00116163,20 C16.2289394,17.6444444 15.9456061,10.3833333 15.9456061,10.3833333 Z" id="Path-9" stroke="#303030" stroke-width="0.5"></path>
                    <path d="M11.3678283,7.89444444 C12.3244422,9.43930705 12.1161,11.4354497 10.8610964,12.7494804 C9.60609286,14.0635111 7.62162557,14.3633135 6.03445732,13.4786623 C4.44728907,12.5940111 3.6585709,10.7484989 4.11612991,8.98999086 C4.57368892,7.23148284 6.16187874,6.00443559 7.9789394,6.00555135 C8.71537943,6.00447758 9.43728839,6.21046227 10.0622727,6.6" id="Path" stroke="#FF6E00"></path>
                    <circle id="Oval" stroke="#FF6E00" cx="7.9789394" cy="9.99444444" r="1.84444444"></circle>
                    <line x1="7.9789394" y1="9.99444444" x2="10.0067172" y2="7.97777778" id="Path" stroke="#FF6E00"></line>
                    <polygon id="Path" stroke="#FF6E00" points="9.99005052 6.78888889 11.1400505 5.70555556 11.1622727 6.78888889 12.2900505 6.88888889 11.234495 7.94444444 9.99005052 7.99444444"></polygon>
                </g>
            </g>
        </g>
    </g>
</svg>