<svg width="243" height="59" viewBox="0 0 243 59" fill="none" xmlns="http://www.w3.org/2000/svg">
<path fill-rule="evenodd" clip-rule="evenodd" d="M68.5032 34.3434L67.3013 35.414V41.9031H62.7197V17.2461H67.3013V30.2556L73.7338 24.2211H79.5173L71.6219 31.4562L79.9721 41.9031H74.3511L68.5032 34.3434Z" fill="#FF6E00"/>
<path fill-rule="evenodd" clip-rule="evenodd" d="M81.0112 24.2212H85.4948V26.6873C86.4044 25.0325 88.4187 23.7344 91.0508 23.7344C94.6243 23.7344 97.9708 26.103 97.9708 31.0991V41.9031H93.3897V32.332C93.3897 29.4774 91.8628 27.9523 89.6537 27.9523C87.249 27.9523 85.5923 29.7693 85.5923 32.4294V41.9031H81.0112V24.2212Z" fill="#FF6E00"/>
<path fill-rule="evenodd" clip-rule="evenodd" d="M113.403 33.0458C113.403 30.2557 111.258 28.0175 108.497 28.0175C105.735 28.0175 103.591 30.2557 103.591 33.0458C103.591 35.8682 105.735 38.1068 108.497 38.1068C111.258 38.1068 113.403 35.8682 113.403 33.0458ZM99.0098 33.0458C99.0098 27.9523 102.843 23.7344 108.497 23.7344C114.15 23.7344 117.984 27.9523 117.984 33.0458C117.984 38.2042 114.15 42.3573 108.497 42.3573C102.843 42.3573 99.0098 38.2042 99.0098 33.0458Z" fill="#FF6E00"/>
<path fill-rule="evenodd" clip-rule="evenodd" d="M116.878 24.2212H121.686L125.228 35.8034L129.224 24.2212H132.441L136.567 35.8034L140.01 24.2212H144.819L138.841 41.8705H134.845L130.849 30.8073L126.917 41.8705H122.921L116.878 24.2212Z" fill="#FF6E00"/>
<path fill-rule="evenodd" clip-rule="evenodd" d="M143.942 38.9501L146.378 36.0629C147.646 37.5876 149.498 38.5286 151.284 38.5286C152.682 38.5286 153.721 37.8147 153.721 36.809C153.721 36.1604 153.299 35.6736 152.454 35.2842C151.479 34.8301 149.14 34.084 148.068 33.5324C146.054 32.5593 145.014 31.002 145.014 28.9578C145.014 25.8758 147.613 23.6372 151.642 23.6372C153.916 23.6372 156.126 24.3833 157.848 26.1681L155.573 29.1201C154.241 27.8551 152.714 27.3683 151.512 27.3683C150.245 27.3683 149.498 28.0495 149.498 28.8609C149.498 29.4773 149.887 30.0937 151.057 30.4826C152.161 30.9045 153.916 31.4883 155.313 32.2022C157.295 33.2406 158.303 34.603 158.303 36.6793C158.303 39.891 155.573 42.3571 151.252 42.3571C148.425 42.3571 145.729 41.2213 143.942 38.9501Z" fill="#FF6E00"/>
<path fill-rule="evenodd" clip-rule="evenodd" d="M188.127 31.2294V41.9033H183.546V32.0729C183.546 29.2827 182.051 27.9524 180.005 27.9524C177.763 27.9524 176.106 29.5746 176.106 32.2025V41.9033H171.525V32.1051C171.525 29.445 170.095 27.9524 167.951 27.9524C165.774 27.9524 164.085 29.5098 164.085 32.2351V41.9033H159.503V24.2213H163.987V26.7522C164.995 24.8704 167.106 23.7024 169.381 23.7345C171.492 23.7345 173.571 24.7081 174.579 26.8497C175.878 24.8704 178.315 23.7345 180.914 23.7345C184.943 23.7345 188.127 26.3629 188.127 31.2294Z" fill="#FF6E00"/>
<path fill-rule="evenodd" clip-rule="evenodd" d="M203.558 33.0458C203.558 30.2557 201.414 28.0175 198.653 28.0175C195.891 28.0175 193.747 30.2557 193.747 33.0458C193.747 35.8682 195.891 38.1068 198.653 38.1068C201.414 38.1068 203.558 35.8682 203.558 33.0458ZM189.166 33.0458C189.166 27.9523 192.999 23.7344 198.653 23.7344C204.306 23.7344 208.14 27.9523 208.14 33.0458C208.14 38.2042 204.306 42.3573 198.653 42.3573C192.999 42.3573 189.166 38.2042 189.166 33.0458Z" fill="#FF6E00"/>
<path fill-rule="evenodd" clip-rule="evenodd" d="M215.189 34.3434L213.987 35.414V41.9031H209.406V17.2461H213.987V30.2556L220.42 24.2211H226.203L218.308 31.4562L226.658 41.9031H221.037L215.189 34.3434Z" fill="#FF6E00"/>
<path fill-rule="evenodd" clip-rule="evenodd" d="M229.549 31.2615H238.549C238.126 28.9907 236.469 27.563 234.13 27.563C231.823 27.563 230.101 28.9581 229.549 31.2615ZM242.837 34.6681H229.549C230.101 36.8092 231.693 38.4314 234.715 38.4314C236.664 38.4314 238.938 37.6853 240.433 36.647L242.253 39.8591C240.563 41.0919 237.801 42.2926 234.52 42.2926C227.892 42.2926 224.903 37.7828 224.903 33.0459C224.903 27.7579 228.607 23.7671 234.13 23.7671C239.166 23.7671 243 27.044 243 32.6566C243 33.3704 242.935 34.0195 242.837 34.6681Z" fill="#FF6E00"/>
<path fill-rule="evenodd" clip-rule="evenodd" d="M23.3594 5.06943L23.342 5.06317C23.3411 5.06541 23.3402 5.06719 23.3398 5.06943H23.3353C23.1186 5.64338 22.8751 6.15162 22.6679 6.65986C22.5779 6.85341 22.4852 7.04472 22.3867 7.23157C22.0295 7.91503 21.6074 8.58196 21.1727 9.25737C20.7363 9.93011 20.2779 10.5997 19.8106 11.2666C19.3495 11.9345 18.8598 12.5692 18.3782 13.2348C17.8934 13.8968 17.3965 14.5628 16.9117 15.2892C16.67 15.6539 16.4305 16.0343 16.2062 16.4608C15.9851 16.8895 15.7662 17.3642 15.6435 17.9842C15.5822 18.2899 15.5585 18.6538 15.6118 19.0364C15.6632 19.4195 15.8051 19.8209 16.0137 20.1575C16.2291 20.4976 16.4632 20.743 16.7434 20.9759C17.0617 21.2423 17.5223 21.4573 17.9695 21.5231C18.4189 21.5946 18.8244 21.5445 19.1606 21.4641C19.5035 21.3827 19.7743 21.2656 20.0304 21.1467C20.5299 20.9035 20.9346 20.6353 21.3106 20.3667C22.0564 19.8267 22.6996 19.2742 23.333 18.7347C23.9638 18.1947 24.5757 17.665 25.1903 17.1626C26.4155 16.1595 27.6639 15.2552 28.9316 14.6294C30.2043 14.0032 31.4679 13.7524 32.6282 13.9629C33.2128 14.0675 33.788 14.2888 34.3498 14.6093C34.6278 14.7783 34.9071 14.9539 35.1753 15.1681C35.4425 15.3723 35.6605 15.5735 35.8798 15.7983C36.7277 16.6977 37.2393 17.8845 37.4054 19.2063C37.5719 20.5285 37.3911 21.958 36.9712 23.3401C36.5477 24.7258 35.9045 26.078 35.0951 27.3408C34.6873 27.971 34.2415 28.5807 33.7643 29.169C33.2795 29.755 32.7728 30.3106 32.2316 30.8663C29.9164 33.2264 27.6039 35.8119 25.915 38.8586C24.2265 41.8933 23.3962 45.4166 23.7578 48.7713C24.376 47.1947 24.9857 45.691 25.7055 44.2713C26.432 42.8557 27.2422 41.5236 28.1527 40.2604C29.9625 37.7228 32.2638 35.5428 34.6345 33.31C37.1686 30.8917 39.2689 27.879 40.3737 24.3713C40.9063 22.6169 41.179 20.7185 40.9435 18.7722C40.7165 16.8407 39.9014 14.8422 38.4676 13.3555C38.1153 12.9903 37.7223 12.6389 37.3342 12.347C36.9564 12.0516 36.5396 11.7856 36.1122 11.5344C35.2446 11.0436 34.2648 10.6623 33.2267 10.4862C32.1895 10.3092 31.1156 10.353 30.1277 10.5716C29.1331 10.7825 28.223 11.1518 27.3882 11.5822C25.7185 12.4512 24.3523 13.5852 23.0842 14.7161C21.8223 15.8403 20.6499 17.0459 19.5066 17.964C19.2251 18.188 18.9458 18.3811 18.7112 18.5103C18.5774 18.5894 18.4672 18.6243 18.4131 18.6421C18.4131 18.6417 18.4104 18.6399 18.4104 18.6395C18.4023 18.6265 18.3665 18.6462 18.3804 18.4401C18.3987 18.2497 18.4905 17.9538 18.6306 17.6462C18.7698 17.336 18.9466 17.007 19.1391 16.6749C19.5268 16.0084 19.9717 15.3267 20.4171 14.6343C20.8675 13.9464 21.3035 13.2232 21.7314 12.5084C22.1598 11.7977 22.5824 11.0802 22.9915 10.3445C23.3666 9.67666 23.7135 8.97621 24.0305 8.24939H43.7399C43.5908 38.101 39.1207 45.5502 23.4642 55.268C7.80767 45.5502 3.33758 38.101 3.18851 8.24939H15.9099C13.8123 10.1487 11.7128 12.0663 9.76518 14.2682C9.20609 14.8981 8.664 15.5578 8.16265 16.2748C7.65771 16.9882 7.18188 17.7508 6.78706 18.5965C6.39225 19.4378 6.06547 20.3707 5.9361 21.3791C5.80002 22.3817 5.84568 23.4469 6.0977 24.4353C6.22572 24.927 6.38463 25.4075 6.58428 25.8563C6.68366 26.0811 6.78303 26.3069 6.89986 26.5161C7.00998 26.7279 7.12324 26.9407 7.26558 27.1646C7.80857 28.0443 8.56194 28.8306 9.4411 29.4202C10.3176 30.0156 11.31 30.4117 12.3064 30.6133C13.3051 30.822 14.3073 30.8444 15.2725 30.7433C16.2371 30.6378 17.1695 30.4134 18.0482 30.0836C18.4905 29.9235 18.9149 29.7309 19.3325 29.5279C19.7434 29.3246 20.1656 29.0818 20.5085 28.8776C21.218 28.4587 21.8778 28.0443 22.5121 27.7104C22.8263 27.545 23.1347 27.398 23.4082 27.2947C23.6432 27.2022 23.8572 27.153 23.9593 27.141C23.9714 27.2241 23.957 27.4177 23.8984 27.6492C23.8317 27.9214 23.7243 28.2424 23.5927 28.5723C23.0461 29.9141 22.2547 31.3736 21.5819 32.8711C20.8992 34.3761 20.2394 35.9075 19.7519 37.5708C19.2734 39.2162 18.9753 40.9242 18.9672 42.6496C18.9516 44.3701 19.2434 46.1121 19.8983 47.7097C20.555 49.2974 21.6307 50.7376 23.0295 51.6214C22.1034 50.2585 21.5447 48.795 21.2976 47.2926C21.1513 46.5479 21.1119 45.788 21.0971 45.0362C21.089 44.2825 21.1351 43.5298 21.2256 42.7819C21.4122 41.2885 21.7524 39.8089 22.2753 38.3902C22.7901 36.9861 23.5058 35.5884 24.2543 34.2062C25.0103 32.8129 25.834 31.4737 26.5968 29.8663C26.783 29.4555 26.9678 29.0233 27.1142 28.5173C27.2525 28.0113 27.3882 27.4275 27.3036 26.6747C27.2691 26.3091 27.146 25.901 26.9647 25.5335C26.7767 25.163 26.5215 24.842 26.2543 24.5877C26.1196 24.4567 25.9875 24.3584 25.8461 24.2466C25.6473 24.1067 25.4333 23.9883 25.214 23.9015C24.7744 23.7268 24.3474 23.674 23.9826 23.6727C23.2471 23.6798 22.7081 23.8457 22.2198 24.0102C21.7345 24.1814 21.3102 24.3772 20.906 24.5774C20.1033 24.9797 19.3831 25.4048 18.7005 25.8013C18.3477 26.006 18.0675 26.1602 17.7533 26.3122C17.443 26.457 17.1306 26.5961 16.8114 26.7056C16.1753 26.9304 15.5281 27.0922 14.8875 27.1615C13.6072 27.3037 12.3704 27.0681 11.4559 26.4423C10.9913 26.1361 10.6103 25.7275 10.2912 25.2457C10.2128 25.1312 10.1345 24.9891 10.0561 24.8452C9.97154 24.7044 9.90798 24.5609 9.84128 24.4187C9.70565 24.134 9.60896 23.8475 9.5257 23.5618C9.21728 22.4247 9.37082 21.2468 9.89768 19.9773C10.4223 18.7168 11.2603 17.4536 12.1721 16.2118C13.0871 14.9669 14.1176 13.7609 15.1556 12.5486C16.1932 11.3346 17.2635 10.1313 18.3374 8.92615L18.7398 8.47423L19.149 7.98432C19.4279 7.66382 19.6736 7.31516 19.9292 6.97767C20.41 6.27856 20.8594 5.56024 21.2215 4.7981C21.4037 4.41815 21.5752 4.03418 21.7265 3.6435C21.876 3.25148 22.0049 2.85276 22.1217 2.45314C22.3375 1.64764 22.508 0.827844 22.5103 0C21.8344 1.49343 20.9727 2.82638 20.0259 4.06278C19.7622 4.41189 19.4811 4.74401 19.1937 5.06943H0V6.65941C0 39.6784 5.09813 47.7807 22.6334 58.4922L23.4642 59L24.295 58.4922C41.8303 47.7807 46.9284 39.6784 46.9284 6.65941V5.06943H23.3594Z" fill="#FF6E00"/>
</svg>
